<svg id="e2cshDmTZwl1" xmlns="http://www.w3.org/2000/svg" viewBox="0 0 887.772 772.831" shape-rendering="geometricPrecision" text-rendering="geometricPrecision"><style>@keyframes e2cshDmTZwl22_to__to{0%,6.666667%{transform:translate(355.707382px,462.81395px)}20%{transform:translate(358.546092px,462.136531px)}26.666667%{transform:translate(376.546092px,462.136531px)}40%{transform:translate(389.546092px,469.136531px)}53.333333%{transform:translate(379.546092px,465.136531px)}73.333333%{transform:translate(367.546092px,465.136531px)}86.666667%{transform:translate(363.546092px,468.136531px)}to{transform:translate(359.546092px,465.136531px)}}@keyframes e2cshDmTZwl23_to__to{0%,6.666667%{transform:translate(487.707382px,462.81395px)}20%{transform:translate(490.546092px,462.136531px)}26.666667%{transform:translate(508.546092px,462.136531px)}40%{transform:translate(521.546092px,469.136531px)}53.333333%{transform:translate(511.546092px,465.136531px)}73.333333%{transform:translate(499.546092px,465.136531px)}86.666667%{transform:translate(495.546092px,468.136531px)}to{transform:translate(491.546092px,465.136531px)}}@keyframes e2cshDmTZwl34_to__to{0%{transform:translate(-156.114px,-64.5846px)}13.333333%{transform:translate(-156.114px,-66.5846px)}33.333333%{transform:translate(-156.114px,-70.5846px)}40%{transform:translate(-156.114px,-71.5846px)}53.333333%{transform:translate(-155.114px,-73.5846px)}93.333333%,to{transform:translate(-155.114px,-75.5846px)}}@keyframes e2cshDmTZwl34_c_o{0%,93.333333%,to{opacity:0}6.666667%{opacity:.58}13.333333%{opacity:1}53.333333%{opacity:.84}60%{opacity:.66}73.333333%{opacity:.24}80%{opacity:.11}}@keyframes e2cshDmTZwl35_to__to{0%{transform:translate(-156.114px,-64.5846px)}13.333333%{transform:translate(-156.114px,-66.5846px)}33.333333%{transform:translate(-156.114px,-70.5846px)}40%{transform:translate(-156.114px,-71.5846px)}53.333333%{transform:translate(-155.114px,-73.5846px)}93.333333%,to{transform:translate(-155.114px,-75.5846px)}}@keyframes e2cshDmTZwl35_c_o{0%,93.333333%,to{opacity:0}6.666667%{opacity:.58}13.333333%{opacity:1}53.333333%{opacity:.84}60%{opacity:.66}73.333333%{opacity:.24}80%{opacity:.11}}@keyframes e2cshDmTZwl36_to__to{0%{transform:translate(-156.114px,-64.5846px)}13.333333%{transform:translate(-156.114px,-66.5846px)}33.333333%{transform:translate(-156.114px,-70.5846px)}40%{transform:translate(-156.114px,-71.5846px)}53.333333%{transform:translate(-155.114px,-73.5846px)}80%,to{transform:translate(-155.114px,-75.5846px)}}@keyframes e2cshDmTZwl36_c_o{0%,86.666667%,to{opacity:0}6.666667%{opacity:.58}13.333333%{opacity:1}53.333333%{opacity:.84}60%{opacity:.66}73.333333%{opacity:.24}80%{opacity:.11}}@keyframes e2cshDmTZwl37_to__to{0%{transform:translate(-156.114px,-64.5846px)}13.333333%{transform:translate(-156.114px,-66.5846px)}33.333333%{transform:translate(-156.114px,-70.5846px)}40%{transform:translate(-156.114px,-71.5846px)}53.333333%{transform:translate(-155.114px,-73.5846px)}80%,to{transform:translate(-155.114px,-75.5846px)}}@keyframes e2cshDmTZwl37_c_o{0%,86.666667%,to{opacity:0}6.666667%{opacity:.58}13.333333%{opacity:1}53.333333%{opacity:.84}60%{opacity:.66}73.333333%{opacity:.24}80%{opacity:.11}}@keyframes e2cshDmTZwl38_to__to{0%{transform:translate(-156.114px,-64.5846px)}13.333333%{transform:translate(-156.114px,-66.5846px)}33.333333%{transform:translate(-156.114px,-70.5846px)}40%{transform:translate(-156.114px,-71.5846px)}53.333333%{transform:translate(-155.114px,-73.5846px)}80%,to{transform:translate(-155.114px,-75.5846px)}}@keyframes e2cshDmTZwl38_c_o{0%,86.666667%,to{opacity:0}6.666667%{opacity:.58}13.333333%{opacity:1}53.333333%{opacity:.84}60%{opacity:.66}73.333333%{opacity:.24}80%{opacity:.11}}@keyframes e2cshDmTZwl39_to__to{0%{transform:translate(-156.114px,-64.5846px)}13.333333%{transform:translate(-156.114px,-66.5846px)}33.333333%{transform:translate(-156.114px,-70.5846px)}40%{transform:translate(-156.114px,-71.5846px)}53.333333%{transform:translate(-155.114px,-73.5846px)}80%,to{transform:translate(-155.114px,-75.5846px)}}@keyframes e2cshDmTZwl39_c_o{0%,86.666667%,to{opacity:0}6.666667%{opacity:.58}13.333333%{opacity:1}53.333333%{opacity:.84}60%{opacity:.66}73.333333%{opacity:.24}80%{opacity:.11}}</style><path fill="#e6e6e6" d="m887.772 763.25-635.509 9.581L0 728.121h393.817l493.955 35.129z"/><path d="M179.84 733.435s1.487-31.159 31.971-27.537" fill="#3f3d56"/><circle r="15.257" transform="translate(171.227 688.526)" fill="#10f136"/><rect width="4.307" height="30.147" rx="0" ry="0" transform="translate(168.744 714.218)" fill="#3f3d56"/><path d="M682.287 738.757s1.487-31.158 31.97-27.537" fill="#3f3d56"/><circle r="15.257" transform="translate(673.673 693.849)" fill="#10f136"/><rect width="4.307" height="30.147" rx="0" ry="0" transform="translate(671.191 719.541)" fill="#3f3d56"/><path d="M755.737 744.08s1.487-31.159 31.972-27.537" fill="#3f3d56"/><circle r="15.257" transform="translate(747.124 699.171)" fill="#10f136"/><rect width="4.307" height="30.147" rx="0" ry="0" transform="translate(744.642 724.863)" fill="#3f3d56"/><path d="M300.13 718.532s1.486-31.159 31.97-27.537" fill="#3f3d56"/><circle r="15.257" transform="translate(291.516 673.623)" fill="#10f136"/><rect width="4.307" height="30.147" rx="0" ry="0" transform="translate(289.033 699.315)" fill="#3f3d56"/><path d="M73.39 723.854s1.487-31.158 31.97-27.537" fill="#3f3d56"/><circle r="15.257" transform="translate(64.776 678.946)" fill="#10f136"/><rect width="4.307" height="30.147" rx="0" ry="0" transform="translate(62.294 704.638)" fill="#3f3d56"/><circle r="166.228" transform="translate(442.277 503.482)" fill="#3f3d56"/><path d="M337.626 516.826a43.988 43.988 0 0 1 67.519 0 48.89 48.89 0 1 0-67.52 0Zm132.004 0a43.988 43.988 0 0 1 67.52 0 48.89 48.89 0 1 0-67.52 0Z" fill="#fff"/><circle r="16.818" fill="#3f3d56" transform="translate(355.707 462.814)" style="animation:e2cshDmTZwl22_to__to 3000ms infinite normal forwards"/><circle r="16.818" fill="#3f3d56" transform="translate(487.707 462.814)" style="animation:e2cshDmTZwl23_to__to 3000ms infinite normal forwards"/><circle r="19.556" transform="translate(322.495 545.039)" fill="#ff6584"/><circle r="19.556" transform="translate(547.392 545.039)" fill="#ff6584"/><path fill="#ff6584" d="m434.943 505.926-14.667 63.558 24.445-24.445-9.778-39.113z"/><path fill="#3f3d56" d="m510.307 750.38-16.652-13.976.388 13.976h-5.172l-.413-14.778-22.483 14.778h-9.412l31.727-20.854-1.229-43.789-.918-33.071 5.159-.142.931 33.213 1.228 43.75 24.887 20.893h-8.041zm-78.231 0-16.652-13.976.388 13.976h-5.158l-.414-14.778-22.483 14.778h-9.412l31.714-20.854-1.228-43.789-.918-33.071 5.171-.142.931 33.213 1.215 43.75 24.888 20.893h-8.042zm12.645-425.349c-4.56 0-8.585 3.543-11.275 8.985-2.37-8.183-7.352-13.874-13.17-13.874a8.96 8.96 0 0 0-1.174.197c-2.237-8.737-7.434-14.864-13.493-14.864-8.1 0-14.667 10.944-14.667 24.445s6.566 24.446 14.667 24.446c.395-.04.787-.106 1.174-.198 2.236 8.737 7.434 14.865 13.493 14.865 4.561 0 8.585-3.543 11.275-8.985 2.371 8.183 7.353 13.874 13.17 13.874 8.1 0 14.667-10.945 14.667-24.446s-6.566-24.445-14.667-24.445Z"/><path d="M286.25 566.477a48.89 48.89 0 0 1-48.89-48.89V493.14a48.89 48.89 0 0 1 48.89-48.89v122.226Zm312.053-122.229a48.89 48.89 0 0 1 48.891 48.891v24.445a48.89 48.89 0 0 1-48.89 48.891V444.248Z" fill="#10f136"/><path d="M623.923 496.98h-7.758c0-98.377-80.035-178.413-178.413-178.413-98.378 0-178.414 80.036-178.414 178.414h-7.757c0-102.655 83.516-186.171 186.17-186.171 102.656 0 186.172 83.516 186.172 186.17Z" fill="#10f136"/><path fill="#3f3d56" d="M131.69 367.997z"/><g transform="translate(-156.114 -64.585)" style="animation:e2cshDmTZwl34_to__to 3000ms infinite normal forwards"/><g transform="translate(-156.114 -64.585)" style="animation:e2cshDmTZwl35_to__to 3000ms infinite normal forwards"/><g transform="translate(-156.114 -64.585)" style="animation:e2cshDmTZwl36_to__to 3000ms infinite normal forwards"/><g transform="translate(-156.114 -64.585)" style="animation:e2cshDmTZwl37_to__to 3000ms infinite normal forwards"/><g transform="translate(-156.114 -64.585)" style="animation:e2cshDmTZwl38_to__to 3000ms infinite normal forwards"/><g transform="translate(-156.114 -64.585)" style="animation:e2cshDmTZwl39_to__to 3000ms infinite normal forwards"/></svg>